<svg xmlns="http://www.w3.org/2000/svg" xmlns:xlink="http://www.w3.org/1999/xlink" width="3383pt" height="2648pt" viewBox="0 0 3383.11 2648.4"><g id="graph0" class="graph" transform="scale(1 1) rotate(0) translate(4 2644.4)"><title>UmlClassDiagram</title><polygon fill="#fff" stroke="transparent" points="-4 4 -4 -2644.4 3379.108 -2644.4 3379.108 4 -4 4"/><g id="node1" class="node"><title>0</title><polygon fill="#f2f2f2" stroke="#000" points="2413.412 -2263.1 2413.412 -2639.9 2770.361 -2639.9 2770.361 -2263.1 2413.412 -2263.1"/><text x="2591.887" y="-2623.3" fill="#000" font-family="Times,serif" font-size="14" text-anchor="middle">&lt;&lt;Library&gt;&gt;</text><text x="2591.887" y="-2606.5" fill="#000" font-family="Times,serif" font-size="14" text-anchor="middle">Buffer</text><polyline fill="none" stroke="#000" points="2413.412 -2598.3 2770.361 -2598.3"/><polyline fill="none" stroke="#000" points="2413.412 -2573.5 2770.361 -2573.5"/><text x="2421.412" y="-2556.9" fill="#000" font-family="Times,serif" font-size="14" text-anchor="start">Private:</text><text x="2421.412" y="-2540.1" fill="#000" font-family="Times,serif" font-size="14" text-anchor="start">resize(buf: buffer, capacity: uint)</text><text x="2421.412" y="-2523.3" fill="#000" font-family="Times,serif" font-size="14" text-anchor="start">max(a: uint, b: uint): uint</text><text x="2421.412" y="-2506.5" fill="#000" font-family="Times,serif" font-size="14" text-anchor="start">write(buf: buffer, off: uint, data: bytes32, len: uint): buffer</text><text x="2421.412" y="-2489.7" fill="#000" font-family="Times,serif" font-size="14" text-anchor="start">writeInt(buf: buffer, off: uint, data: uint, len: uint): buffer</text><text x="2421.412" y="-2472.9" fill="#000" font-family="Times,serif" font-size="14" text-anchor="start">Internal:</text><text x="2421.412" y="-2456.1" fill="#000" font-family="Times,serif" font-size="14" text-anchor="start">init(buf: buffer, capacity: uint): buffer</text><text x="2421.412" y="-2439.3" fill="#000" font-family="Times,serif" font-size="14" text-anchor="start">fromBytes(b: bytes): buffer</text><text x="2421.412" y="-2422.5" fill="#000" font-family="Times,serif" font-size="14" text-anchor="start">truncate(buf: buffer): buffer</text><text x="2421.412" y="-2405.7" fill="#000" font-family="Times,serif" font-size="14" text-anchor="start">write(buf: buffer, off: uint, data: bytes, len: uint): buffer</text><text x="2421.412" y="-2388.9" fill="#000" font-family="Times,serif" font-size="14" text-anchor="start">append(buf: buffer, data: bytes, len: uint): buffer</text><text x="2421.412" y="-2372.1" fill="#000" font-family="Times,serif" font-size="14" text-anchor="start">append(buf: buffer, data: bytes): buffer</text><text x="2421.412" y="-2355.3" fill="#000" font-family="Times,serif" font-size="14" text-anchor="start">writeUint8(buf: buffer, off: uint, data: uint8): buffer</text><text x="2421.412" y="-2338.5" fill="#000" font-family="Times,serif" font-size="14" text-anchor="start">appendUint8(buf: buffer, data: uint8): buffer</text><text x="2421.412" y="-2321.7" fill="#000" font-family="Times,serif" font-size="14" text-anchor="start">writeBytes20(buf: buffer, off: uint, data: bytes20): buffer</text><text x="2421.412" y="-2304.9" fill="#000" font-family="Times,serif" font-size="14" text-anchor="start">appendBytes20(buf: buffer, data: bytes20): buffer</text><text x="2421.412" y="-2288.1" fill="#000" font-family="Times,serif" font-size="14" text-anchor="start">appendBytes32(buf: buffer, data: bytes32): buffer</text><text x="2421.412" y="-2271.3" fill="#000" font-family="Times,serif" font-size="14" text-anchor="start">appendInt(buf: buffer, data: uint, len: uint): buffer</text></g><g id="node2" class="node"><title>0struct0</title><polygon fill="#f2f2f2" stroke="#000" points="2545.981 -1996.1 2545.981 -2079.3 2637.793 -2079.3 2637.793 -1996.1 2545.981 -1996.1"/><text x="2591.887" y="-2062.7" fill="#000" font-family="Times,serif" font-size="14" text-anchor="middle">&lt;&lt;struct&gt;&gt;</text><text x="2591.887" y="-2045.9" fill="#000" font-family="Times,serif" font-size="14" text-anchor="middle">buffer</text><polyline fill="none" stroke="#000" points="2545.981 -2037.7 2637.793 -2037.7"/><text x="2553.981" y="-2021.1" fill="#000" font-family="Times,serif" font-size="14" text-anchor="start">buf: bytes</text><text x="2553.981" y="-2004.3" fill="#000" font-family="Times,serif" font-size="14" text-anchor="start">capacity: uint</text></g><g id="edge1" class="edge"><title>0struct0-&gt;0</title><path fill="none" stroke="#000" d="M2591.8869,-2079.6546C2591.8869,-2120.6616 2591.8869,-2186.1995 2591.8869,-2250.9131"/><polygon fill="#000" stroke="#000" points="2591.887 -2250.981 2595.887 -2256.981 2591.887 -2262.981 2587.887 -2256.981 2591.887 -2250.981"/></g><g id="node3" class="node"><title>1</title><polygon fill="#f2f2f2" stroke="#000" points="2655.926 -1849.3 2655.926 -2226.1 3033.847 -2226.1 3033.847 -1849.3 2655.926 -1849.3"/><text x="2844.887" y="-2209.5" fill="#000" font-family="Times,serif" font-size="14" text-anchor="middle">&lt;&lt;Library&gt;&gt;</text><text x="2844.887" y="-2192.7" fill="#000" font-family="Times,serif" font-size="14" text-anchor="middle">CBOR</text><polyline fill="none" stroke="#000" points="2655.926 -2184.5 3033.847 -2184.5"/><text x="2663.926" y="-2167.9" fill="#000" font-family="Times,serif" font-size="14" text-anchor="start">Private:</text><text x="2663.926" y="-2151.1" fill="#000" font-family="Times,serif" font-size="14" text-anchor="start">MAJOR_TYPE_INT: uint8</text><text x="2663.926" y="-2134.3" fill="#000" font-family="Times,serif" font-size="14" text-anchor="start">MAJOR_TYPE_NEGATIVE_INT: uint8</text><text x="2663.926" y="-2117.5" fill="#000" font-family="Times,serif" font-size="14" text-anchor="start">MAJOR_TYPE_BYTES: uint8</text><text x="2663.926" y="-2100.7" fill="#000" font-family="Times,serif" font-size="14" text-anchor="start">MAJOR_TYPE_STRING: uint8</text><text x="2663.926" y="-2083.9" fill="#000" font-family="Times,serif" font-size="14" text-anchor="start">MAJOR_TYPE_ARRAY: uint8</text><text x="2663.926" y="-2067.1" fill="#000" font-family="Times,serif" font-size="14" text-anchor="start">MAJOR_TYPE_MAP: uint8</text><text x="2663.926" y="-2050.3" fill="#000" font-family="Times,serif" font-size="14" text-anchor="start">MAJOR_TYPE_CONTENT_FREE: uint8</text><polyline fill="none" stroke="#000" points="2655.926 -2042.1 3033.847 -2042.1"/><text x="2663.926" y="-2025.5" fill="#000" font-family="Times,serif" font-size="14" text-anchor="start">Private:</text><text x="2663.926" y="-2008.7" fill="#000" font-family="Times,serif" font-size="14" text-anchor="start">encodeType(buf: Buffer.buffer, major: uint8, value: uint)</text><text x="2663.926" y="-1991.9" fill="#000" font-family="Times,serif" font-size="14" text-anchor="start">encodeIndefiniteLengthType(buf: Buffer.buffer, major: uint8)</text><text x="2663.926" y="-1975.1" fill="#000" font-family="Times,serif" font-size="14" text-anchor="start">Internal:</text><text x="2663.926" y="-1958.3" fill="#000" font-family="Times,serif" font-size="14" text-anchor="start">encodeUInt(buf: Buffer.buffer, value: uint)</text><text x="2663.926" y="-1941.5" fill="#000" font-family="Times,serif" font-size="14" text-anchor="start">encodeInt(buf: Buffer.buffer, value: int)</text><text x="2663.926" y="-1924.7" fill="#000" font-family="Times,serif" font-size="14" text-anchor="start">encodeBytes(buf: Buffer.buffer, value: bytes)</text><text x="2663.926" y="-1907.9" fill="#000" font-family="Times,serif" font-size="14" text-anchor="start">encodeString(buf: Buffer.buffer, value: string)</text><text x="2663.926" y="-1891.1" fill="#000" font-family="Times,serif" font-size="14" text-anchor="start">startArray(buf: Buffer.buffer)</text><text x="2663.926" y="-1874.3" fill="#000" font-family="Times,serif" font-size="14" text-anchor="start">startMap(buf: Buffer.buffer)</text><text x="2663.926" y="-1857.5" fill="#000" font-family="Times,serif" font-size="14" text-anchor="start">endSequence(buf: Buffer.buffer)</text></g><g id="edge4" class="edge"><title>1-&gt;0</title><path fill="none" stroke="#000" stroke-dasharray="5 2" d="M2729.677,-2226.1342C2723.935,-2235.5256 2718.1618,-2244.9682 2712.4051,-2254.3836"/><polygon fill="#000" stroke="#000" points="2709.355 -2252.663 2707.124 -2263.021 2715.327 -2256.315 2709.355 -2252.663"/></g><g id="node4" class="node"><title>2</title><polygon fill="#f2f2f2" stroke="#000" points="2624.74 -1553.1 2624.74 -1778.7 3283.034 -1778.7 3283.034 -1553.1 2624.74 -1553.1"/><text x="2953.887" y="-1762.1" fill="#000" font-family="Times,serif" font-size="14" text-anchor="middle">&lt;&lt;Library&gt;&gt;</text><text x="2953.887" y="-1745.3" fill="#000" font-family="Times,serif" font-size="14" text-anchor="middle">Chainlink</text><polyline fill="none" stroke="#000" points="2624.74 -1737.1 3283.034 -1737.1"/><text x="2632.74" y="-1720.5" fill="#000" font-family="Times,serif" font-size="14" text-anchor="start">Internal:</text><text x="2632.74" y="-1703.7" fill="#000" font-family="Times,serif" font-size="14" text-anchor="start">defaultBufferSize: uint256</text><polyline fill="none" stroke="#000" points="2624.74 -1695.5 3283.034 -1695.5"/><text x="2632.74" y="-1678.9" fill="#000" font-family="Times,serif" font-size="14" text-anchor="start">Internal:</text><text x="2632.74" y="-1662.1" fill="#000" font-family="Times,serif" font-size="14" text-anchor="start">initialize(self: Request, _id: bytes32, _callbackAddress: address, _callbackFunction: bytes4): Chainlink.Request</text><text x="2632.74" y="-1645.3" fill="#000" font-family="Times,serif" font-size="14" text-anchor="start">setBuffer(self: Request, _data: bytes)</text><text x="2632.74" y="-1628.5" fill="#000" font-family="Times,serif" font-size="14" text-anchor="start">add(self: Request, _key: string, _value: string)</text><text x="2632.74" y="-1611.7" fill="#000" font-family="Times,serif" font-size="14" text-anchor="start">addBytes(self: Request, _key: string, _value: bytes)</text><text x="2632.74" y="-1594.9" fill="#000" font-family="Times,serif" font-size="14" text-anchor="start">addInt(self: Request, _key: string, _value: int256)</text><text x="2632.74" y="-1578.1" fill="#000" font-family="Times,serif" font-size="14" text-anchor="start">addUint(self: Request, _key: string, _value: uint256)</text><text x="2632.74" y="-1561.3" fill="#000" font-family="Times,serif" font-size="14" text-anchor="start">addStringArray(self: Request, _key: string, _values: string[])</text></g><g id="edge6" class="edge"><title>2-&gt;0</title><path fill="none" stroke="#000" stroke-dasharray="5 2" d="M3018.6619,-1779.0819C3028.6892,-1801.5264 3037.4958,-1825.4 3042.8869,-1848.8 3080.5841,-2012.4248 3131.239,-2083.8133 3042.8869,-2226.6 2985.3562,-2319.5759 2876.5271,-2375.3706 2780.1896,-2408.129"/><polygon fill="#000" stroke="#000" points="2778.988 -2404.84 2770.61 -2411.325 2781.203 -2411.481 2778.988 -2404.84"/></g><g id="edge5" class="edge"><title>2-&gt;1</title><path fill="none" stroke="#000" stroke-dasharray="5 2" d="M2920.8135,-1778.7138C2915.1619,-1797.9912 2909.1448,-1818.5157 2903.0664,-1839.2493"/><polygon fill="#000" stroke="#000" points="2899.63 -1838.531 2900.175 -1849.112 2906.347 -1840.5 2899.63 -1838.531"/></g><g id="edge7" class="edge"><title>2-&gt;2</title><path fill="none" stroke="#000" stroke-dasharray="5 2" d="M3283.0909,-1627.1179C3294.5048,-1637.4355 3301.0343,-1650.3629 3301.0343,-1665.9 3301.0343,-1677.917 3297.1283,-1688.3728 3290.0775,-1697.2675"/><polygon fill="#000" stroke="#000" points="3287.401 -1695.004 3283.091 -1704.682 3292.496 -1699.804 3287.401 -1695.004"/></g><g id="node5" class="node"><title>2struct0</title><polygon fill="#f2f2f2" stroke="#000" points="2343.877 -1084.5 2343.877 -1218.1 2511.896 -1218.1 2511.896 -1084.5 2343.877 -1084.5"/><text x="2427.887" y="-1201.5" fill="#000" font-family="Times,serif" font-size="14" text-anchor="middle">&lt;&lt;struct&gt;&gt;</text><text x="2427.887" y="-1184.7" fill="#000" font-family="Times,serif" font-size="14" text-anchor="middle">Request</text><polyline fill="none" stroke="#000" points="2343.877 -1176.5 2511.896 -1176.5"/><text x="2351.877" y="-1159.9" fill="#000" font-family="Times,serif" font-size="14" text-anchor="start">id: bytes32</text><text x="2351.877" y="-1143.1" fill="#000" font-family="Times,serif" font-size="14" text-anchor="start">callbackAddress: address</text><text x="2351.877" y="-1126.3" fill="#000" font-family="Times,serif" font-size="14" text-anchor="start">callbackFunctionId: bytes4</text><text x="2351.877" y="-1109.5" fill="#000" font-family="Times,serif" font-size="14" text-anchor="start">nonce: uint256</text><text x="2351.877" y="-1092.7" fill="#000" font-family="Times,serif" font-size="14" text-anchor="start">buf: Buffer.buffer</text></g><g id="edge2" class="edge"><title>2struct0-&gt;2</title><path fill="none" stroke="#000" d="M2429.488,-1218.2603C2434.7546,-1291.9423 2454.0019,-1409.6312 2520.8869,-1483 2551.026,-1516.0608 2573.4641,-1502.1022 2614.8869,-1519 2637.8307,-1528.3595 2661.5696,-1538.2396 2685.3413,-1548.2698"/><polygon fill="#000" stroke="#000" points="2685.582 -1548.372 2692.666 -1547.024 2696.635 -1553.045 2689.551 -1554.393 2685.582 -1548.372"/></g><g id="node6" class="node"><title>3</title><polygon fill="#f2f2f2" stroke="#000" points="469.722 -1611.9 469.722 -1719.9 740.052 -1719.9 740.052 -1611.9 469.722 -1611.9"/><text x="604.887" y="-1703.3" fill="#000" font-family="Times,serif" font-size="14" text-anchor="middle">&lt;&lt;Abstract&gt;&gt;</text><text x="604.887" y="-1686.5" fill="#000" font-family="Times,serif" font-size="14" text-anchor="middle">ENSResolver</text><polyline fill="none" stroke="#000" points="469.722 -1678.3 740.052 -1678.3"/><polyline fill="none" stroke="#000" points="469.722 -1653.5 740.052 -1653.5"/><text x="477.722" y="-1636.9" fill="#000" font-family="Times,serif" font-size="14" text-anchor="start">Public:</text><text x="477.722" y="-1620.1" fill="#000" font-family="Times,serif" font-size="14" text-anchor="start">&lt;&lt;abstract&gt;&gt; addr(node: bytes32): address</text></g><g id="node7" class="node"><title>4</title><polygon fill="#f2f2f2" stroke="#000" points="757.941 -1519.5 757.941 -1812.3 1181.833 -1812.3 1181.833 -1519.5 757.941 -1519.5"/><text x="969.887" y="-1795.7" fill="#000" font-family="Times,serif" font-size="14" text-anchor="middle">&lt;&lt;Interface&gt;&gt;</text><text x="969.887" y="-1778.9" fill="#000" font-family="Times,serif" font-size="14" text-anchor="middle">ENSInterface</text><polyline fill="none" stroke="#000" points="757.941 -1770.7 1181.833 -1770.7"/><polyline fill="none" stroke="#000" points="757.941 -1745.9 1181.833 -1745.9"/><text x="765.941" y="-1729.3" fill="#000" font-family="Times,serif" font-size="14" text-anchor="start">External:</text><text x="765.941" y="-1712.5" fill="#000" font-family="Times,serif" font-size="14" text-anchor="start">setSubnodeOwner(node: bytes32, label: bytes32, owner: address)</text><text x="765.941" y="-1695.7" fill="#000" font-family="Times,serif" font-size="14" text-anchor="start">setResolver(node: bytes32, resolver: address)</text><text x="765.941" y="-1678.9" fill="#000" font-family="Times,serif" font-size="14" text-anchor="start">setOwner(node: bytes32, owner: address)</text><text x="765.941" y="-1662.1" fill="#000" font-family="Times,serif" font-size="14" text-anchor="start">setTTL(node: bytes32, ttl: uint64)</text><text x="765.941" y="-1645.3" fill="#000" font-family="Times,serif" font-size="14" text-anchor="start">owner(node: bytes32): address</text><text x="765.941" y="-1628.5" fill="#000" font-family="Times,serif" font-size="14" text-anchor="start">resolver(node: bytes32): address</text><text x="765.941" y="-1611.7" fill="#000" font-family="Times,serif" font-size="14" text-anchor="start">ttl(node: bytes32): uint64</text><text x="765.941" y="-1594.9" fill="#000" font-family="Times,serif" font-size="14" text-anchor="start">Public:</text><text x="765.941" y="-1578.1" fill="#000" font-family="Times,serif" font-size="14" text-anchor="start">&lt;&lt;event&gt;&gt; NewOwner(node: bytes32, label: bytes32, owner: address)</text><text x="765.941" y="-1561.3" fill="#000" font-family="Times,serif" font-size="14" text-anchor="start">&lt;&lt;event&gt;&gt; Transfer(node: bytes32, owner: address)</text><text x="765.941" y="-1544.5" fill="#000" font-family="Times,serif" font-size="14" text-anchor="start">&lt;&lt;event&gt;&gt; NewResolver(node: bytes32, resolver: address)</text><text x="765.941" y="-1527.7" fill="#000" font-family="Times,serif" font-size="14" text-anchor="start">&lt;&lt;event&gt;&gt; NewTTL(node: bytes32, ttl: uint64)</text></g><g id="node8" class="node"><title>5</title><polygon fill="#f2f2f2" stroke="#000" points="0 -1519.5 0 -1812.3 451.774 -1812.3 451.774 -1519.5 0 -1519.5"/><text x="225.887" y="-1795.7" fill="#000" font-family="Times,serif" font-size="14" text-anchor="middle">&lt;&lt;Interface&gt;&gt;</text><text x="225.887" y="-1778.9" fill="#000" font-family="Times,serif" font-size="14" text-anchor="middle">LinkTokenInterface</text><polyline fill="none" stroke="#000" points="0 -1770.7 451.774 -1770.7"/><polyline fill="none" stroke="#000" points="0 -1745.9 451.774 -1745.9"/><text x="8" y="-1729.3" fill="#000" font-family="Times,serif" font-size="14" text-anchor="start">External:</text><text x="8" y="-1712.5" fill="#000" font-family="Times,serif" font-size="14" text-anchor="start">allowance(owner: address, spender: address): (success: bool)</text><text x="8" y="-1695.7" fill="#000" font-family="Times,serif" font-size="14" text-anchor="start">approve(spender: address, value: uint256): (success: bool)</text><text x="8" y="-1678.9" fill="#000" font-family="Times,serif" font-size="14" text-anchor="start">balanceOf(owner: address): (balance: uint256)</text><text x="8" y="-1662.1" fill="#000" font-family="Times,serif" font-size="14" text-anchor="start">decimals(): (decimalPlaces: uint8)</text><text x="8" y="-1645.3" fill="#000" font-family="Times,serif" font-size="14" text-anchor="start">decreaseApproval(spender: address, addedValue: uint256): (success: bool)</text><text x="8" y="-1628.5" fill="#000" font-family="Times,serif" font-size="14" text-anchor="start">increaseApproval(spender: address, subtractedValue: uint256)</text><text x="8" y="-1611.7" fill="#000" font-family="Times,serif" font-size="14" text-anchor="start">name(): (tokenName: string)</text><text x="8" y="-1594.9" fill="#000" font-family="Times,serif" font-size="14" text-anchor="start">symbol(): (tokenSymbol: string)</text><text x="8" y="-1578.1" fill="#000" font-family="Times,serif" font-size="14" text-anchor="start">totalSupply(): (totalTokensIssued: uint256)</text><text x="8" y="-1561.3" fill="#000" font-family="Times,serif" font-size="14" text-anchor="start">transfer(to: address, value: uint256): (success: bool)</text><text x="8" y="-1544.5" fill="#000" font-family="Times,serif" font-size="14" text-anchor="start">transferAndCall(to: address, value: uint256, data: bytes): (success: bool)</text><text x="8" y="-1527.7" fill="#000" font-family="Times,serif" font-size="14" text-anchor="start">transferFrom(from: address, to: address, value: uint256): (success: bool)</text></g><g id="node9" class="node"><title>6</title><polygon fill="#f2f2f2" stroke="#000" points="1199.698 -1603.5 1199.698 -1728.3 2146.075 -1728.3 2146.075 -1603.5 1199.698 -1603.5"/><text x="1672.887" y="-1711.7" fill="#000" font-family="Times,serif" font-size="14" text-anchor="middle">&lt;&lt;Interface&gt;&gt;</text><text x="1672.887" y="-1694.9" fill="#000" font-family="Times,serif" font-size="14" text-anchor="middle">ChainlinkRequestInterface</text><polyline fill="none" stroke="#000" points="1199.698 -1686.7 2146.075 -1686.7"/><polyline fill="none" stroke="#000" points="1199.698 -1661.9 2146.075 -1661.9"/><text x="1207.698" y="-1645.3" fill="#000" font-family="Times,serif" font-size="14" text-anchor="start">External:</text><text x="1207.698" y="-1628.5" fill="#000" font-family="Times,serif" font-size="14" text-anchor="start">oracleRequest(sender: address, payment: uint256, id: bytes32, callbackAddress: address, callbackFunctionId: bytes4, nonce: uint256, version: uint256, data: bytes)</text><text x="1207.698" y="-1611.7" fill="#000" font-family="Times,serif" font-size="14" text-anchor="start">cancelOracleRequest(requestId: bytes32, payment: uint256, callbackFunctionId: bytes4, expiration: uint256)</text></g><g id="node10" class="node"><title>7</title><polygon fill="#f2f2f2" stroke="#000" points="2164.303 -1611.9 2164.303 -1719.9 2319.47 -1719.9 2319.47 -1611.9 2164.303 -1611.9"/><text x="2241.887" y="-1703.3" fill="#000" font-family="Times,serif" font-size="14" text-anchor="middle">&lt;&lt;Interface&gt;&gt;</text><text x="2241.887" y="-1686.5" fill="#000" font-family="Times,serif" font-size="14" text-anchor="middle">PointerInterface</text><polyline fill="none" stroke="#000" points="2164.303 -1678.3 2319.47 -1678.3"/><polyline fill="none" stroke="#000" points="2164.303 -1653.5 2319.47 -1653.5"/><text x="2172.303" y="-1636.9" fill="#000" font-family="Times,serif" font-size="14" text-anchor="start">External:</text><text x="2172.303" y="-1620.1" fill="#000" font-family="Times,serif" font-size="14" text-anchor="start">getAddress(): address</text></g><g id="node11" class="node"><title>8</title><polygon fill="#f2f2f2" stroke="#000" points="2337.508 -1586.7 2337.508 -1745.1 2606.266 -1745.1 2606.266 -1586.7 2337.508 -1586.7"/><text x="2471.887" y="-1728.5" fill="#000" font-family="Times,serif" font-size="14" text-anchor="middle">&lt;&lt;Library&gt;&gt;</text><text x="2471.887" y="-1711.7" fill="#000" font-family="Times,serif" font-size="14" text-anchor="middle">SafeMath</text><polyline fill="none" stroke="#000" points="2337.508 -1703.5 2606.266 -1703.5"/><polyline fill="none" stroke="#000" points="2337.508 -1678.7 2606.266 -1678.7"/><text x="2345.508" y="-1662.1" fill="#000" font-family="Times,serif" font-size="14" text-anchor="start">Internal:</text><text x="2345.508" y="-1645.3" fill="#000" font-family="Times,serif" font-size="14" text-anchor="start">mul(_a: uint256, _b: uint256): (c: uint256)</text><text x="2345.508" y="-1628.5" fill="#000" font-family="Times,serif" font-size="14" text-anchor="start">div(_a: uint256, _b: uint256): uint256</text><text x="2345.508" y="-1611.7" fill="#000" font-family="Times,serif" font-size="14" text-anchor="start">sub(_a: uint256, _b: uint256): uint256</text><text x="2345.508" y="-1594.9" fill="#000" font-family="Times,serif" font-size="14" text-anchor="start">add(_a: uint256, _b: uint256): (c: uint256)</text></g><g id="node12" class="node"><title>9</title><polygon fill="#f2f2f2" stroke="#000" points="1587.883 -820.1 1587.883 -1482.5 2325.891 -1482.5 2325.891 -820.1 1587.883 -820.1"/><text x="1956.887" y="-1465.9" fill="#000" font-family="Times,serif" font-size="14" text-anchor="middle">ChainlinkClient</text><polyline fill="none" stroke="#000" points="1587.883 -1457.7 2325.891 -1457.7"/><text x="1595.883" y="-1441.1" fill="#000" font-family="Times,serif" font-size="14" text-anchor="start">Private:</text><text x="1595.883" y="-1424.3" fill="#000" font-family="Times,serif" font-size="14" text-anchor="start">AMOUNT_OVERRIDE: uint256</text><text x="1595.883" y="-1407.5" fill="#000" font-family="Times,serif" font-size="14" text-anchor="start">SENDER_OVERRIDE: address</text><text x="1595.883" y="-1390.7" fill="#000" font-family="Times,serif" font-size="14" text-anchor="start">ARGS_VERSION: uint256</text><text x="1595.883" y="-1373.9" fill="#000" font-family="Times,serif" font-size="14" text-anchor="start">ENS_TOKEN_SUBNAME: bytes32</text><text x="1595.883" y="-1357.1" fill="#000" font-family="Times,serif" font-size="14" text-anchor="start">ENS_ORACLE_SUBNAME: bytes32</text><text x="1595.883" y="-1340.3" fill="#000" font-family="Times,serif" font-size="14" text-anchor="start">LINK_TOKEN_POINTER: address</text><text x="1595.883" y="-1323.5" fill="#000" font-family="Times,serif" font-size="14" text-anchor="start">ens: ENSInterface</text><text x="1595.883" y="-1306.7" fill="#000" font-family="Times,serif" font-size="14" text-anchor="start">ensNode: bytes32</text><text x="1595.883" y="-1289.9" fill="#000" font-family="Times,serif" font-size="14" text-anchor="start">link: LinkTokenInterface</text><text x="1595.883" y="-1273.1" fill="#000" font-family="Times,serif" font-size="14" text-anchor="start">oracle: ChainlinkRequestInterface</text><text x="1595.883" y="-1256.3" fill="#000" font-family="Times,serif" font-size="14" text-anchor="start">requests: uint256</text><text x="1595.883" y="-1239.5" fill="#000" font-family="Times,serif" font-size="14" text-anchor="start">pendingRequests: mapping(bytes32=&gt;address)</text><text x="1595.883" y="-1222.7" fill="#000" font-family="Times,serif" font-size="14" text-anchor="start">Internal:</text><text x="1595.883" y="-1205.9" fill="#000" font-family="Times,serif" font-size="14" text-anchor="start">LINK: uint256</text><polyline fill="none" stroke="#000" points="1587.883 -1197.7 2325.891 -1197.7"/><text x="1595.883" y="-1181.1" fill="#000" font-family="Times,serif" font-size="14" text-anchor="start">Private:</text><text x="1595.883" y="-1164.3" fill="#000" font-family="Times,serif" font-size="14" text-anchor="start">encodeRequest(_req: Chainlink.Request): bytes</text><text x="1595.883" y="-1147.5" fill="#000" font-family="Times,serif" font-size="14" text-anchor="start">Internal:</text><text x="1595.883" y="-1130.7" fill="#000" font-family="Times,serif" font-size="14" text-anchor="start">buildChainlinkRequest(_specId: bytes32, _callbackAddress: address, _callbackFunctionSignature: bytes4): Chainlink.Request</text><text x="1595.883" y="-1113.9" fill="#000" font-family="Times,serif" font-size="14" text-anchor="start">sendChainlinkRequest(_req: Chainlink.Request, _payment: uint256): bytes32</text><text x="1595.883" y="-1097.1" fill="#000" font-family="Times,serif" font-size="14" text-anchor="start">sendChainlinkRequestTo(_oracle: address, _req: Chainlink.Request, _payment: uint256): (requestId: bytes32)</text><text x="1595.883" y="-1080.3" fill="#000" font-family="Times,serif" font-size="14" text-anchor="start">cancelChainlinkRequest(_requestId: bytes32, _payment: uint256, _callbackFunc: bytes4, _expiration: uint256)</text><text x="1595.883" y="-1063.5" fill="#000" font-family="Times,serif" font-size="14" text-anchor="start">setChainlinkOracle(_oracle: address)</text><text x="1595.883" y="-1046.7" fill="#000" font-family="Times,serif" font-size="14" text-anchor="start">setChainlinkToken(_link: address)</text><text x="1595.883" y="-1029.9" fill="#000" font-family="Times,serif" font-size="14" text-anchor="start">setPublicChainlinkToken()</text><text x="1595.883" y="-1013.1" fill="#000" font-family="Times,serif" font-size="14" text-anchor="start">chainlinkTokenAddress(): address</text><text x="1595.883" y="-996.3" fill="#000" font-family="Times,serif" font-size="14" text-anchor="start">chainlinkOracleAddress(): address</text><text x="1595.883" y="-979.5" fill="#000" font-family="Times,serif" font-size="14" text-anchor="start">addChainlinkExternalRequest(_oracle: address, _requestId: bytes32)</text><text x="1595.883" y="-962.7" fill="#000" font-family="Times,serif" font-size="14" text-anchor="start">useChainlinkWithENS(_ens: address, _node: bytes32)</text><text x="1595.883" y="-945.9" fill="#000" font-family="Times,serif" font-size="14" text-anchor="start">updateChainlinkOracleWithENS()</text><text x="1595.883" y="-929.1" fill="#000" font-family="Times,serif" font-size="14" text-anchor="start">validateChainlinkCallback(_requestId: bytes32)</text><text x="1595.883" y="-912.3" fill="#000" font-family="Times,serif" font-size="14" text-anchor="start">Public:</text><text x="1595.883" y="-895.5" fill="#000" font-family="Times,serif" font-size="14" text-anchor="start">&lt;&lt;event&gt;&gt; ChainlinkRequested(id: bytes32)</text><text x="1595.883" y="-878.7" fill="#000" font-family="Times,serif" font-size="14" text-anchor="start">&lt;&lt;event&gt;&gt; ChainlinkFulfilled(id: bytes32)</text><text x="1595.883" y="-861.9" fill="#000" font-family="Times,serif" font-size="14" text-anchor="start">&lt;&lt;event&gt;&gt; ChainlinkCancelled(id: bytes32)</text><text x="1595.883" y="-845.1" fill="#000" font-family="Times,serif" font-size="14" text-anchor="start">&lt;&lt;modifier&gt;&gt; recordChainlinkFulfillment(_requestId: bytes32)</text><text x="1595.883" y="-828.3" fill="#000" font-family="Times,serif" font-size="14" text-anchor="start">&lt;&lt;modifier&gt;&gt; notPendingRequest(_requestId: bytes32)</text></g><g id="edge8" class="edge"><title>9-&gt;2</title><path fill="none" stroke="#000" stroke-dasharray="5 2" d="M2325.954,-1478.8646C2328.925,-1480.2739 2331.9028,-1481.6528 2334.8869,-1483 2449.2424,-1534.626 2493.91,-1485.7284 2614.8869,-1519 2645.1528,-1527.3239 2676.2354,-1537.8335 2706.7164,-1549.389"/><polygon fill="#000" stroke="#000" points="2705.565 -1552.696 2716.155 -1553.007 2708.071 -1546.16 2705.565 -1552.696"/></g><g id="edge14" class="edge"><title>9-&gt;3</title><path fill="none" stroke="#000" stroke-dasharray="5 2" d="M1587.6203,-1308.1703C1425.0518,-1371.4588 1230.1648,-1439.6288 1048.8869,-1483 918.283,-1514.2473 869.3724,-1459.6956 748.8869,-1519 709.6198,-1538.3277 674.9485,-1572.8144 649.4714,-1603.5175"/><polygon fill="#000" stroke="#000" points="646.457 -1601.677 642.865 -1611.644 651.889 -1606.093 646.457 -1601.677"/></g><g id="edge10" class="edge"><title>9-&gt;4</title><path fill="none" stroke="#000" d="M1587.7365,-1315.7868C1460.0649,-1375.9986 1317.352,-1447.0783 1190.8869,-1519 1190.793,-1519.0534 1190.6992,-1519.1068 1190.6053,-1519.1602"/><polygon fill="#000" stroke="#000" points="1188.764 -1516.181 1181.839 -1524.199 1192.253 -1522.25 1188.764 -1516.181"/></g><g id="edge11" class="edge"><title>9-&gt;5</title><path fill="none" stroke="#000" d="M1587.6645,-1313.7006C1425.5175,-1377.7639 1230.9408,-1445.0147 1048.8869,-1483 795.8376,-1535.7984 712.3553,-1441.5976 461.7054,-1518.9283"/><polygon fill="#000" stroke="#000" points="460.441 -1515.657 451.953 -1521.997 462.542 -1522.334 460.441 -1515.657"/></g><g id="edge12" class="edge"><title>9-&gt;6</title><path fill="none" stroke="#000" d="M1774.0144,-1482.6597C1751.0209,-1524.3235 1729.5902,-1563.1552 1712.4294,-1594.2501"/><polygon fill="#000" stroke="#000" points="1709.242 -1592.781 1707.475 -1603.228 1715.371 -1596.164 1709.242 -1592.781"/></g><g id="edge13" class="edge"><title>9-&gt;7</title><path fill="none" stroke="#000" stroke-dasharray="5 2" d="M2140.4033,-1482.6597C2165.6477,-1528.2414 2189.0148,-1570.4334 2206.9476,-1602.813"/><polygon fill="#000" stroke="#000" points="2203.952 -1604.628 2211.858 -1611.68 2210.075 -1601.236 2203.952 -1604.628"/></g><g id="edge9" class="edge"><title>9-&gt;8</title><path fill="none" stroke="#000" stroke-dasharray="5 2" d="M2292.7843,-1482.7273C2304.9873,-1494.9545 2317.0533,-1507.0757 2328.8869,-1519 2348.0896,-1538.35 2368.6026,-1559.2713 2387.9229,-1579.0914"/><polygon fill="#000" stroke="#000" points="2385.497 -1581.618 2394.982 -1586.339 2390.512 -1576.733 2385.497 -1581.618"/></g><g id="node13" class="node"><title>10</title><polygon fill="#f2f2f2" stroke="#000" points="2530.254 -1097.3 2530.254 -1205.3 2753.52 -1205.3 2753.52 -1097.3 2530.254 -1097.3"/><text x="2641.887" y="-1188.7" fill="#000" font-family="Times,serif" font-size="14" text-anchor="middle">&lt;&lt;Library&gt;&gt;</text><text x="2641.887" y="-1171.9" fill="#000" font-family="Times,serif" font-size="14" text-anchor="middle">SignedSafeMath</text><polyline fill="none" stroke="#000" points="2530.254 -1163.7 2753.52 -1163.7"/><polyline fill="none" stroke="#000" points="2530.254 -1138.9 2753.52 -1138.9"/><text x="2538.254" y="-1122.3" fill="#000" font-family="Times,serif" font-size="14" text-anchor="start">Internal:</text><text x="2538.254" y="-1105.5" fill="#000" font-family="Times,serif" font-size="14" text-anchor="start">add(_a: int256, _b: int256): int256</text></g><g id="node14" class="node"><title>11</title><polygon fill="#f2f2f2" stroke="#000" points="2771.45 -1038.5 2771.45 -1264.1 3256.324 -1264.1 3256.324 -1038.5 2771.45 -1038.5"/><text x="3013.887" y="-1247.5" fill="#000" font-family="Times,serif" font-size="14" text-anchor="middle">Ownable</text><polyline fill="none" stroke="#000" points="2771.45 -1239.3 3256.324 -1239.3"/><text x="2779.45" y="-1222.7" fill="#000" font-family="Times,serif" font-size="14" text-anchor="start">Public:</text><text x="2779.45" y="-1205.9" fill="#000" font-family="Times,serif" font-size="14" text-anchor="start">owner: address</text><polyline fill="none" stroke="#000" points="2771.45 -1197.7 3256.324 -1197.7"/><text x="2779.45" y="-1181.1" fill="#000" font-family="Times,serif" font-size="14" text-anchor="start">Internal:</text><text x="2779.45" y="-1164.3" fill="#000" font-family="Times,serif" font-size="14" text-anchor="start">_transferOwnership(_newOwner: address)</text><text x="2779.45" y="-1147.5" fill="#000" font-family="Times,serif" font-size="14" text-anchor="start">Public:</text><text x="2779.45" y="-1130.7" fill="#000" font-family="Times,serif" font-size="14" text-anchor="start">&lt;&lt;event&gt;&gt; OwnershipRenounced(previousOwner: address)</text><text x="2779.45" y="-1113.9" fill="#000" font-family="Times,serif" font-size="14" text-anchor="start">&lt;&lt;event&gt;&gt; OwnershipTransferred(previousOwner: address, newOwner: address)</text><text x="2779.45" y="-1097.1" fill="#000" font-family="Times,serif" font-size="14" text-anchor="start">&lt;&lt;modifier&gt;&gt; onlyOwner()</text><text x="2779.45" y="-1080.3" fill="#000" font-family="Times,serif" font-size="14" text-anchor="start">constructor()</text><text x="2779.45" y="-1063.5" fill="#000" font-family="Times,serif" font-size="14" text-anchor="start">renounceOwnership()</text><text x="2779.45" y="-1046.7" fill="#000" font-family="Times,serif" font-size="14" text-anchor="start">transferOwnership(_newOwner: address)</text></g><g id="node15" class="node"><title>12</title><polygon fill="#f2f2f2" stroke="#000" points="2272.872 -137.5 2272.872 -783.1 3010.902 -783.1 3010.902 -137.5 2272.872 -137.5"/><text x="2641.887" y="-766.5" fill="#000" font-family="Times,serif" font-size="14" text-anchor="middle">Aggregator</text><polyline fill="none" stroke="#000" points="2272.872 -758.3 3010.902 -758.3"/><text x="2280.872" y="-741.7" fill="#000" font-family="Times,serif" font-size="14" text-anchor="start">Private:</text><text x="2280.872" y="-724.9" fill="#000" font-family="Times,serif" font-size="14" text-anchor="start">answerCounter: uint256</text><text x="2280.872" y="-708.1" fill="#000" font-family="Times,serif" font-size="14" text-anchor="start">requestAnswers: mapping(bytes32=&gt;uint256)</text><text x="2280.872" y="-691.3" fill="#000" font-family="Times,serif" font-size="14" text-anchor="start">answers: mapping(uint256=&gt;Answer)</text><text x="2280.872" y="-674.5" fill="#000" font-family="Times,serif" font-size="14" text-anchor="start">MAX_ORACLE_COUNT: uint256</text><text x="2280.872" y="-657.7" fill="#000" font-family="Times,serif" font-size="14" text-anchor="start">Public:</text><text x="2280.872" y="-640.9" fill="#000" font-family="Times,serif" font-size="14" text-anchor="start">currentAnswer: int256</text><text x="2280.872" y="-624.1" fill="#000" font-family="Times,serif" font-size="14" text-anchor="start">latestCompletedAnswer: uint256</text><text x="2280.872" y="-607.3" fill="#000" font-family="Times,serif" font-size="14" text-anchor="start">updatedHeight: uint256</text><text x="2280.872" y="-590.5" fill="#000" font-family="Times,serif" font-size="14" text-anchor="start">paymentAmount: uint128</text><text x="2280.872" y="-573.7" fill="#000" font-family="Times,serif" font-size="14" text-anchor="start">minimumResponses: uint128</text><text x="2280.872" y="-556.9" fill="#000" font-family="Times,serif" font-size="14" text-anchor="start">jobIds: bytes32[]</text><text x="2280.872" y="-540.1" fill="#000" font-family="Times,serif" font-size="14" text-anchor="start">oracles: address[]</text><text x="2280.872" y="-523.3" fill="#000" font-family="Times,serif" font-size="14" text-anchor="start">authorizedRequesters: mapping(address=&gt;bool)</text><polyline fill="none" stroke="#000" points="2272.872 -515.1 3010.902 -515.1"/><text x="2280.872" y="-498.5" fill="#000" font-family="Times,serif" font-size="14" text-anchor="start">Private:</text><text x="2280.872" y="-481.7" fill="#000" font-family="Times,serif" font-size="14" text-anchor="start">updateLatestAnswer(_answerId: uint256)</text><text x="2280.872" y="-464.9" fill="#000" font-family="Times,serif" font-size="14" text-anchor="start">quickselect(_a: int256[], _k: uint256): int256</text><text x="2280.872" y="-448.1" fill="#000" font-family="Times,serif" font-size="14" text-anchor="start">swap(_a: int256[], _b: int256[]): (int256[], int256[])</text><text x="2280.872" y="-431.3" fill="#000" font-family="Times,serif" font-size="14" text-anchor="start">deleteAnswer(_answerId: uint256)</text><text x="2280.872" y="-414.5" fill="#000" font-family="Times,serif" font-size="14" text-anchor="start">External:</text><text x="2280.872" y="-397.7" fill="#000" font-family="Times,serif" font-size="14" text-anchor="start">requestRateUpdate()</text><text x="2280.872" y="-380.9" fill="#000" font-family="Times,serif" font-size="14" text-anchor="start">chainlinkCallback(_clRequestId: bytes32, _response: int256)</text><text x="2280.872" y="-364.1" fill="#000" font-family="Times,serif" font-size="14" text-anchor="start">setAuthorization(_requester: address, _allowed: bool)</text><text x="2280.872" y="-347.3" fill="#000" font-family="Times,serif" font-size="14" text-anchor="start">cancelRequest(_requestId: bytes32, _payment: uint256, _expiration: uint256)</text><text x="2280.872" y="-330.5" fill="#000" font-family="Times,serif" font-size="14" text-anchor="start">destroy()</text><text x="2280.872" y="-313.7" fill="#000" font-family="Times,serif" font-size="14" text-anchor="start">Public:</text><text x="2280.872" y="-296.9" fill="#000" font-family="Times,serif" font-size="14" text-anchor="start">&lt;&lt;event&gt;&gt; ResponseReceived(response: int256, answerId: uint256, sender: address)</text><text x="2280.872" y="-280.1" fill="#000" font-family="Times,serif" font-size="14" text-anchor="start">&lt;&lt;event&gt;&gt; AnswerUpdated(current: int256, answerId: uint256)</text><text x="2280.872" y="-263.3" fill="#000" font-family="Times,serif" font-size="14" text-anchor="start">&lt;&lt;modifier&gt;&gt; ensureMinResponsesReceived(_answerId: uint256)</text><text x="2280.872" y="-246.5" fill="#000" font-family="Times,serif" font-size="14" text-anchor="start">&lt;&lt;modifier&gt;&gt; ensureAllResponsesReceived(_answerId: uint256)</text><text x="2280.872" y="-229.7" fill="#000" font-family="Times,serif" font-size="14" text-anchor="start">&lt;&lt;modifier&gt;&gt; ensureOnlyLatestAnswer(_answerId: uint256)</text><text x="2280.872" y="-212.9" fill="#000" font-family="Times,serif" font-size="14" text-anchor="start">&lt;&lt;modifier&gt;&gt; validateAnswerRequirements(_minimumResponses: uint256, _oracles: address[], _jobIds: bytes32[])</text><text x="2280.872" y="-196.1" fill="#000" font-family="Times,serif" font-size="14" text-anchor="start">&lt;&lt;modifier&gt;&gt; ensureAuthorizedRequester()</text><text x="2280.872" y="-179.3" fill="#000" font-family="Times,serif" font-size="14" text-anchor="start">constructor(_link: address, _paymentAmount: uint128, _minimumResponses: uint128, _oracles: address[], _jobIds: bytes32[])</text><text x="2280.872" y="-162.5" fill="#000" font-family="Times,serif" font-size="14" text-anchor="start">updateRequestDetails(_paymentAmount: uint128, _minimumResponses: uint128, _oracles: address[], _jobIds: bytes32[])</text><text x="2280.872" y="-145.7" fill="#000" font-family="Times,serif" font-size="14" text-anchor="start">transferLINK(_recipient: address, _amount: uint256)</text></g><g id="edge18" class="edge"><title>12-&gt;2</title><path fill="none" stroke="#000" stroke-dasharray="5 2" d="M3011.0019,-591.5003C3111.0705,-645.9569 3207.5068,-720.2686 3264.8869,-819.6 3412.369,-1074.9082 3411.2831,-1227.0676 3264.8869,-1483 3251.3142,-1506.728 3233.3312,-1527.6813 3212.836,-1546.1164"/><polygon fill="#000" stroke="#000" points="3210.413 -1543.585 3205.175 -1552.795 3215.013 -1548.862 3210.413 -1543.585"/></g><g id="edge19" class="edge"><title>12-&gt;5</title><path fill="none" stroke="#000" stroke-dasharray="5 2" d="M2272.6236,-561.9225C2064.2718,-624.945 1801.806,-713.985 1578.8869,-819.6 1151.9265,-1021.886 693.4449,-1330.1856 434.8766,-1513.5122"/><polygon fill="#000" stroke="#000" points="432.654 -1510.798 426.524 -1519.44 436.705 -1516.506 432.654 -1510.798"/></g><g id="edge15" class="edge"><title>12-&gt;9</title><path fill="none" stroke="#000" d="M2321.6989,-783.2926C2316.6866,-788.3487 2311.6679,-793.4114 2306.6472,-798.4761"/><polygon fill="none" stroke="#000" points="2298.996 -791.28 2285.332 -819.978 2313.91 -806.064 2298.996 -791.28"/></g><g id="edge17" class="edge"><title>12-&gt;10</title><path fill="none" stroke="#000" stroke-dasharray="5 2" d="M2641.8869,-783.2926C2641.8869,-898.3404 2641.8869,-1016.7304 2641.8869,-1087.1457"/><polygon fill="#000" stroke="#000" points="2638.387 -1087.181 2641.887 -1097.181 2645.387 -1087.181 2638.387 -1087.181"/></g><g id="edge16" class="edge"><title>12-&gt;11</title><path fill="none" stroke="#000" d="M2815.77,-783.2926C2858.9866,-863.5686 2903.0793,-945.4719 2938.6626,-1011.5689"/><polygon fill="none" stroke="#000" points="2929.646 -1016.972 2953.112 -1038.41 2948.137 -1007.017 2929.646 -1016.972"/></g><g id="node16" class="node"><title>12struct0</title><polygon fill="#f2f2f2" stroke="#000" points="2552.025 -.5 2552.025 -100.5 2731.749 -100.5 2731.749 -.5 2552.025 -.5"/><text x="2641.887" y="-83.9" fill="#000" font-family="Times,serif" font-size="14" text-anchor="middle">&lt;&lt;struct&gt;&gt;</text><text x="2641.887" y="-67.1" fill="#000" font-family="Times,serif" font-size="14" text-anchor="middle">Answer</text><polyline fill="none" stroke="#000" points="2552.025 -58.9 2731.749 -58.9"/><text x="2560.025" y="-42.3" fill="#000" font-family="Times,serif" font-size="14" text-anchor="start">minimumResponses: uint128</text><text x="2560.025" y="-25.5" fill="#000" font-family="Times,serif" font-size="14" text-anchor="start">maxResponses: uint128</text><text x="2560.025" y="-8.7" fill="#000" font-family="Times,serif" font-size="14" text-anchor="start">responses: int256[]</text></g><g id="edge3" class="edge"><title>12struct0-&gt;12</title><path fill="none" stroke="#000" d="M2641.8869,-100.7495C2641.8869,-108.2433 2641.8869,-116.397 2641.8869,-125.0849"/><polygon fill="#000" stroke="#000" points="2641.887 -125.251 2645.887 -131.251 2641.887 -137.251 2637.887 -131.251 2641.887 -125.251"/></g></g></svg>